<svg xmlns="http://www.w3.org/2000/svg" viewBox="0 0 1679.8 687.76">
  <title>smash_logo</title>
  <g id="Lager_2" data-name="Lager 2">
    <g id="Layer_1" data-name="Layer 1">
      <g>
        <polygon points="398.49 425.54 355.58 539.98 208.44 147.62 294.27 147.62 398.49 425.54"/>
        <rect x="2.25" width="1677.55" height="86.8"/>
        <path d="M126.18,301q27.62,0,50.58,9.16a118.4,118.4,0,0,1,0,220.63q-23,9.15-50.58,9.16V453.86a34.65,34.65,0,0,0,13-2.48,33.28,33.28,0,0,0,18.2-17.56,33.85,33.85,0,0,0,0-26.62,33.29,33.29,0,0,0-18.2-17.56,34.6,34.6,0,0,0-13-2.48q-27.62,0-50.58-9.16a118.4,118.4,0,0,1,0-220.63q23-9.15,50.58-9.16v86.12a34.65,34.65,0,0,0-13,2.48A33.28,33.28,0,0,0,95,254.38,33.85,33.85,0,0,0,95,281a33.29,33.29,0,0,0,18.2,17.56A34.6,34.6,0,0,0,126.18,301Z"/>
        <rect x="502.72" y="147.62" width="85.83" height="392.36"/>
        <polygon points="839.9 330.72 944.12 539.98 1029.95 539.98 839.9 147.62 649.85 539.98 735.68 539.98 839.9 330.72"/>
        <path d="M1113.22,300.44q27.62,0,50.58,9.16a118.4,118.4,0,0,1,0,220.63q-23,9.15-50.58,9.16V453.26a34.65,34.65,0,0,0,13-2.48,33.28,33.28,0,0,0,18.2-17.56,33.85,33.85,0,0,0,0-26.62,33.29,33.29,0,0,0-18.2-17.56,34.6,34.6,0,0,0-13-2.48q-27.62,0-50.58-9.16a118.4,118.4,0,0,1,0-220.63q23-9.15,50.58-9.16v86.12a34.65,34.65,0,0,0-13,2.48,33.28,33.28,0,0,0-18.2,17.56,33.85,33.85,0,0,0,0,26.62,33.29,33.29,0,0,0,18.2,17.56A34.6,34.6,0,0,0,1113.22,300.44Z"/>
        <rect x="1299.7" y="147.62" width="85.83" height="392.36"/>
        <rect x="1593.97" y="147.62" width="85.83" height="392.36"/>
        <rect y="600.64" width="1679.8" height="87.12"/>
      </g>
    </g>
  </g>
</svg>
