<svg xmlns="http://www.w3.org/2000/svg" viewBox="0 0 600 600.001">
  <defs>
    <style>
      .cls-1 {
        fill: #fff;
      }
    </style>
  </defs>
  <path id="Subtraction_1" data-name="Subtraction 1" class="cls-1" d="M600,600H0V0H600V600ZM360.936,462.492a19.233,19.233,0,0,0-7.749,1.558A18.217,18.217,0,0,0,347,468.478a21.247,21.247,0,0,0-4.141,6.888,25.5,25.5,0,0,0-1.517,9.021,21.548,21.548,0,0,0,1.354,7.667,18.889,18.889,0,0,0,3.9,6.273,18.058,18.058,0,0,0,6.273,4.263,21.723,21.723,0,0,0,8.4,1.558,18.227,18.227,0,0,0,7.5-1.6,19.326,19.326,0,0,0,6.273-4.51,22.212,22.212,0,0,0,4.3-6.889,23.529,23.529,0,0,0,1.6-8.815,21.46,21.46,0,0,0-1.476-8.078,18.1,18.1,0,0,0-10.5-10.332A22.083,22.083,0,0,0,360.936,462.492Zm-66.83,38.294a2.363,2.363,0,0,1,1.23.41,18.863,18.863,0,0,0,4.223,2.174,18.136,18.136,0,0,0,10.906-.123,12.451,12.451,0,0,0,4.3-2.583,11.8,11.8,0,0,0,2.788-3.936,12.323,12.323,0,0,0,.985-4.961,9.164,9.164,0,0,0-2.911-7.134,27.915,27.915,0,0,0-8.159-4.756,35.16,35.16,0,0,1-7.38-3.855,6.05,6.05,0,0,1-2.706-5.084,5.622,5.622,0,0,1,1.722-4.1,7.047,7.047,0,0,1,5.166-1.722,10.049,10.049,0,0,1,7.5,2.992,13.884,13.884,0,0,1,3.567,8.159H316.9V463.64h-1.967c0,1.2-.442,1.8-1.312,1.8a2.948,2.948,0,0,1-1.476-.492,21.577,21.577,0,0,0-3.65-1.8,13.028,13.028,0,0,0-4.469-.656,15.565,15.565,0,0,0-5.084.82,14.072,14.072,0,0,0-4.223,2.3,10.862,10.862,0,0,0-2.912,3.568,10.1,10.1,0,0,0-1.066,4.632,11.289,11.289,0,0,0,2.5,7.011c1.658,2.149,4.431,3.956,8.24,5.371,1.416.49,2.755,1,3.977,1.517a14.906,14.906,0,0,1,3.2,1.8,8.005,8.005,0,0,1,2.132,2.378,6.42,6.42,0,0,1,.779,3.239,5.892,5.892,0,0,1-2.009,4.633,8.271,8.271,0,0,1-5.617,1.763,9.232,9.232,0,0,1-3.854-.861,12,12,0,0,1-3.486-2.46,15.427,15.427,0,0,1-2.787-3.936,18.292,18.292,0,0,1-1.681-5.371H290.17V503H292.3a2.7,2.7,0,0,1,.451-1.558A1.538,1.538,0,0,1,294.106,500.786ZM224.98,462.492a16.3,16.3,0,0,0-7.052,1.6,18.711,18.711,0,0,0-5.9,4.428,21.751,21.751,0,0,0-4.059,6.764,24.112,24.112,0,0,0-1.516,8.692,23.787,23.787,0,0,0,1.353,8.2,18.842,18.842,0,0,0,3.813,6.355,17.164,17.164,0,0,0,5.9,4.141,19.241,19.241,0,0,0,7.626,1.476,15.812,15.812,0,0,0,5.822-1.066,15.342,15.342,0,0,0,4.8-2.993,15.8,15.8,0,0,0,3.444-4.674,20.545,20.545,0,0,0,1.845-6.109l-1.23-.328a16.183,16.183,0,0,1-4.3,7.38,10.085,10.085,0,0,1-7.094,2.706,10.638,10.638,0,0,1-5.33-1.354,12.21,12.21,0,0,1-4.018-3.731,18.629,18.629,0,0,1-2.543-5.658,27.3,27.3,0,0,1-.9-7.216v-1.312h25.994a18.223,18.223,0,0,0-1.353-7.133,17.022,17.022,0,0,0-3.608-5.453,15.843,15.843,0,0,0-5.289-3.485A16.935,16.935,0,0,0,224.98,462.492Zm-134.4,0a16.787,16.787,0,0,0-7.5,1.681,17.5,17.5,0,0,0-5.822,4.633,21.835,21.835,0,0,0-3.772,7.052,28.51,28.51,0,0,0-1.353,8.938,24.266,24.266,0,0,0,1.229,7.913,18.308,18.308,0,0,0,3.444,6.109,15.512,15.512,0,0,0,5.248,3.937,15.8,15.8,0,0,0,6.642,1.393,12.792,12.792,0,0,0,6.519-1.6,12.565,12.565,0,0,0,4.388-4.223V503H113.05v-1.8h-.82a4.8,4.8,0,0,1-3.772-1.311c-.762-.871-1.148-2.472-1.148-4.756V444.452L93.862,445.6v1.8h.82a5.56,5.56,0,0,1,3.485,1.107c.953.735,1.436,2.321,1.436,4.714v12.137a14.027,14.027,0,0,0-9.02-2.87Zm317.093,38.7V503h19.188v-1.8h-.82a4.8,4.8,0,0,1-3.772-1.311c-.761-.871-1.147-2.471-1.147-4.756V473.644a11.648,11.648,0,0,0-2.788-8.036c-1.85-2.068-4.664-3.116-8.365-3.116a13.589,13.589,0,0,0-8.282,2.747,24.286,24.286,0,0,0-6.232,6.929v-9.676L382.01,463.64v1.8h.82a4.8,4.8,0,0,1,3.772,1.312c.761.871,1.147,2.471,1.147,4.756v23.616c0,2.285-.386,3.886-1.147,4.756a4.8,4.8,0,0,1-3.772,1.311h-.82V503H401.2v-1.8h-.821a4.8,4.8,0,0,1-3.772-1.311c-.761-.871-1.147-2.471-1.147-4.756V475.12a15.469,15.469,0,0,1,4.51-5.125,9.754,9.754,0,0,1,5.74-2.01,7.936,7.936,0,0,1,5.7,1.928c1.333,1.278,2.009,3.389,2.009,6.273v18.941c0,2.285-.386,3.886-1.148,4.756A4.8,4.8,0,0,1,408.5,501.2Zm-87.33,0V503h19.188v-1.8h-.82a4.8,4.8,0,0,1-3.772-1.311c-.762-.87-1.148-2.471-1.148-4.756V462.492l-13.448,1.148v1.8h.82a5.56,5.56,0,0,1,3.485,1.107c.953.735,1.436,2.321,1.436,4.715v23.862c0,2.286-.386,3.886-1.148,4.756a4.8,4.8,0,0,1-3.772,1.311Zm-52.4,0V503h19.188v-1.8h-.82a4.8,4.8,0,0,1-3.772-1.311c-.762-.87-1.148-2.471-1.148-4.756V473.644a11.644,11.644,0,0,0-2.788-8.036c-1.85-2.068-4.664-3.116-8.364-3.116a13.586,13.586,0,0,0-8.282,2.747,24.285,24.285,0,0,0-6.232,6.929v-9.676l-13.448,1.148v1.8h.82a4.8,4.8,0,0,1,3.772,1.312c.762.87,1.148,2.47,1.148,4.756v23.616c0,2.286-.386,3.886-1.148,4.756A4.8,4.8,0,0,1,243.1,501.2h-.82V503H261.47v-1.8h-.82a4.8,4.8,0,0,1-3.772-1.311c-.762-.871-1.148-2.472-1.148-4.756V475.12A15.475,15.475,0,0,1,260.24,470a9.752,9.752,0,0,1,5.739-2.01,7.94,7.94,0,0,1,5.7,1.928c1.333,1.278,2.009,3.389,2.009,6.273v18.941c0,2.286-.386,3.886-1.148,4.756a4.8,4.8,0,0,1-3.772,1.311Zm-80.688,0V503h18.7v-1.8h-.82c-1.741,0-2.969-.441-3.649-1.311s-1.024-2.471-1.024-4.756V473.644c0-3.481-.911-6.24-2.706-8.2s-4.444-2.952-7.872-2.952a13.367,13.367,0,0,0-7.79,2.337,24.32,24.32,0,0,0-6.314,6.929,10.277,10.277,0,0,0-2.993-6.889c-1.715-1.578-4.239-2.378-7.5-2.378a13.1,13.1,0,0,0-7.5,2.255,26.43,26.43,0,0,0-6.519,6.846v-9.1l-13.448,1.148v1.8h.82a4.8,4.8,0,0,1,3.772,1.312c.761.871,1.148,2.471,1.148,4.756v23.616c0,2.285-.386,3.886-1.148,4.756a4.8,4.8,0,0,1-3.772,1.311h-.82V503H157v-1.8h-.82a4.8,4.8,0,0,1-3.773-1.311c-.761-.871-1.148-2.471-1.148-4.756V474.546a13.5,13.5,0,0,1,2.132-2.665,16.421,16.421,0,0,1,2.583-2.05,14.019,14.019,0,0,1,2.705-1.353,7.411,7.411,0,0,1,2.5-.492,6.7,6.7,0,0,1,5.044,2.01c1.279,1.333,1.927,3.416,1.927,6.191v18.941c0,2.285-.345,3.885-1.025,4.756s-1.907,1.311-3.649,1.311h-.82V503h18.7v-1.8h-.82c-1.742,0-2.97-.441-3.649-1.311s-1.025-2.471-1.025-4.756V474.546a13.5,13.5,0,0,1,2.132-2.665,16.421,16.421,0,0,1,2.583-2.05,14.017,14.017,0,0,1,2.706-1.353,7.4,7.4,0,0,1,2.5-.492,6.7,6.7,0,0,1,5.043,2.01c1.279,1.333,1.927,3.416,1.927,6.191v18.941c0,2.285-.345,3.885-1.025,4.756s-1.907,1.311-3.649,1.311Zm-71.422,0V503h19.188v-1.8h-.82a4.8,4.8,0,0,1-3.772-1.311c-.762-.87-1.148-2.471-1.148-4.756V462.492l-13.448,1.148v1.8h.82a5.56,5.56,0,0,1,3.485,1.107c.953.735,1.436,2.321,1.436,4.715v23.862c0,2.285-.386,3.885-1.148,4.756a4.8,4.8,0,0,1-3.772,1.311Zm214.1-54.612a5.321,5.321,0,1,0,3.772,1.559A5.157,5.157,0,0,0,329.94,446.584Zm-204.508,0a5.321,5.321,0,1,0,3.772,1.559A5.157,5.157,0,0,0,125.432,446.584ZM213.91,341.492a16.787,16.787,0,0,0-7.5,1.68,17.51,17.51,0,0,0-5.822,4.633,21.848,21.848,0,0,0-3.772,7.052,28.508,28.508,0,0,0-1.353,8.938,24.264,24.264,0,0,0,1.229,7.913,18.331,18.331,0,0,0,3.444,6.109,15.511,15.511,0,0,0,5.248,3.936,15.787,15.787,0,0,0,6.642,1.394,12.789,12.789,0,0,0,6.52-1.6,12.552,12.552,0,0,0,4.387-4.223V382h13.448v-1.8h-.82a4.8,4.8,0,0,1-3.772-1.312c-.762-.871-1.148-2.471-1.148-4.756V323.452L217.19,324.6v1.8h.82a5.561,5.561,0,0,1,3.486,1.107c.952.734,1.435,2.321,1.435,4.715v12.136a14.876,14.876,0,0,0-3.649-2.009A14.716,14.716,0,0,0,213.91,341.492ZM82.546,330.832c-.435,3.863-1.594,6.829-3.444,8.815s-4.5,2.993-7.872,2.993v1.968h5.576v8.364c0,3.868-.1,7.4-.287,10.5s-.287,5.981-.287,8.528a13.266,13.266,0,0,0,2.3,8.036,7.367,7.367,0,0,0,6.233,3.116,7.594,7.594,0,0,0,5.781-2.132,14.074,14.074,0,0,0,3.075-5.74l-.82-.491a5.414,5.414,0,0,1-2.05,2.255,5.316,5.316,0,0,1-2.542.616,3.368,3.368,0,0,1-2.665-1.19,5.961,5.961,0,0,1-1.025-3.894V344.608h7.545V342.64H84.514V330.832ZM165.858,380.2V382h19.188v-1.8h-.82a4.8,4.8,0,0,1-3.773-1.312c-.761-.871-1.148-2.471-1.148-4.756v-20.5a12.732,12.732,0,0,1,.41-3.567,7.882,7.882,0,0,1,.943-2.132,2.9,2.9,0,0,1,1.189-1.067,2.963,2.963,0,0,1,1.148-.287,2.319,2.319,0,0,1,2.214,1.025c.381.681.85,1.55,1.394,2.583a7.514,7.514,0,0,0,1.516,1.558,3.64,3.64,0,0,0,2.255.656,5.2,5.2,0,0,0,3.485-1.311,4.636,4.636,0,0,0,1.517-3.69,5.433,5.433,0,0,0-1.8-4.388,7.3,7.3,0,0,0-4.838-1.517,10.528,10.528,0,0,0-5.453,1.6,10.724,10.724,0,0,0-3.977,3.977v-5.576l-13.448,1.148v1.8h.82a4.8,4.8,0,0,1,3.772,1.311c.761.871,1.148,2.471,1.148,4.757v23.616c0,2.285-.386,3.885-1.148,4.756a4.8,4.8,0,0,1-3.772,1.312Zm-21.976,0V382H163.07v-1.8h-.82a4.8,4.8,0,0,1-3.772-1.312c-.762-.87-1.148-2.47-1.148-4.756V341.492l-13.448,1.148v1.8h.82a5.559,5.559,0,0,1,3.485,1.107c.953.735,1.436,2.321,1.436,4.714v23.863c0,2.284-.386,3.884-1.148,4.756A4.8,4.8,0,0,1,144.7,380.2Zm-21.976,0V382h19.188v-1.8h-.82a4.8,4.8,0,0,1-3.772-1.312c-.762-.871-1.148-2.471-1.148-4.756V352.644c0-3.592-.966-6.378-2.87-8.283s-4.635-2.869-8.118-2.869a15.235,15.235,0,0,0-8.691,2.665,25.584,25.584,0,0,0-6.56,6.355v-27.06L95.666,324.6v1.8h.82a4.8,4.8,0,0,1,3.772,1.312c.761.871,1.147,2.471,1.147,4.756v41.657c0,2.285-.386,3.885-1.147,4.756a4.8,4.8,0,0,1-3.772,1.312h-.82V382h19.188v-1.8h-.821a4.8,4.8,0,0,1-3.772-1.312c-.761-.871-1.147-2.471-1.147-4.756V353.464a18.165,18.165,0,0,1,5.288-4.8,11.171,11.171,0,0,1,5.535-1.681,7.867,7.867,0,0,1,5.535,2.009c1.442,1.333,2.173,3.416,2.173,6.191v18.942c0,2.285-.386,3.885-1.148,4.756a4.8,4.8,0,0,1-3.772,1.312Zm31.57-54.612a5.319,5.319,0,1,0,3.772,1.558A5.159,5.159,0,0,0,153.476,325.584ZM421.37,220.492a16.3,16.3,0,0,0-7.052,1.6,18.711,18.711,0,0,0-5.9,4.428,21.749,21.749,0,0,0-4.059,6.764,24.112,24.112,0,0,0-1.516,8.692,23.787,23.787,0,0,0,1.353,8.2A18.853,18.853,0,0,0,408,256.531a17.17,17.17,0,0,0,5.9,4.142,19.256,19.256,0,0,0,7.626,1.476,15.8,15.8,0,0,0,5.822-1.066,15.352,15.352,0,0,0,4.8-2.993,15.819,15.819,0,0,0,3.444-4.675,20.548,20.548,0,0,0,1.845-6.109l-1.23-.328a16.175,16.175,0,0,1-4.3,7.38,10.084,10.084,0,0,1-7.093,2.706,10.632,10.632,0,0,1-5.331-1.354,12.209,12.209,0,0,1-4.018-3.73,18.655,18.655,0,0,1-2.542-5.658,27.3,27.3,0,0,1-.9-7.216v-1.311h25.994a18.228,18.228,0,0,0-1.353-7.134,17.012,17.012,0,0,0-3.608-5.453,15.847,15.847,0,0,0-5.288-3.485A16.945,16.945,0,0,0,421.37,220.492ZM343.8,209.832c-.435,3.863-1.594,6.828-3.444,8.815s-4.5,2.993-7.872,2.993v1.967h5.576v8.365c0,3.868-.1,7.4-.287,10.5s-.287,5.98-.287,8.528a13.266,13.266,0,0,0,2.3,8.036,7.367,7.367,0,0,0,6.233,3.117,7.594,7.594,0,0,0,5.781-2.132,14.084,14.084,0,0,0,3.075-5.74l-.82-.492a5.418,5.418,0,0,1-2.05,2.255,5.325,5.325,0,0,1-2.542.615,3.368,3.368,0,0,1-2.665-1.189,5.966,5.966,0,0,1-1.025-3.9V223.608h7.545V221.64h-7.545V209.832Zm-67.65,10.66a19.233,19.233,0,0,0-7.749,1.558,18.215,18.215,0,0,0-6.191,4.428,21.258,21.258,0,0,0-4.141,6.889,25.489,25.489,0,0,0-1.517,9.02,21.549,21.549,0,0,0,1.353,7.667,18.889,18.889,0,0,0,3.9,6.273,18.057,18.057,0,0,0,6.273,4.263,21.706,21.706,0,0,0,8.405,1.559,18.225,18.225,0,0,0,7.5-1.6,19.325,19.325,0,0,0,6.273-4.51,22.232,22.232,0,0,0,4.306-6.889,23.538,23.538,0,0,0,1.6-8.815,21.441,21.441,0,0,0-1.476-8.077,18.1,18.1,0,0,0-10.5-10.332A22.084,22.084,0,0,0,276.148,220.492Zm-193.6-10.66c-.435,3.863-1.594,6.828-3.444,8.815s-4.5,2.993-7.872,2.993v1.967h5.576v8.365c0,3.868-.1,7.4-.287,10.5s-.287,5.98-.287,8.528a13.266,13.266,0,0,0,2.3,8.036,7.367,7.367,0,0,0,6.233,3.117,7.594,7.594,0,0,0,5.781-2.132,14.084,14.084,0,0,0,3.075-5.74l-.82-.492a5.418,5.418,0,0,1-2.05,2.255,5.325,5.325,0,0,1-2.542.615,3.368,3.368,0,0,1-2.665-1.189,5.966,5.966,0,0,1-1.025-3.9V223.608h7.545V221.64H84.514V209.832ZM383.158,259.2V261h19.188v-1.8h-.82a4.8,4.8,0,0,1-3.772-1.312c-.762-.87-1.148-2.471-1.148-4.757V231.644c0-3.591-.966-6.377-2.87-8.282s-4.635-2.87-8.118-2.87a15.236,15.236,0,0,0-8.691,2.665,25.6,25.6,0,0,0-6.56,6.355V202.452L356.918,203.6v1.8h.82a4.8,4.8,0,0,1,3.772,1.311c.761.871,1.147,2.471,1.147,4.756v41.656c0,2.285-.386,3.886-1.147,4.757a4.8,4.8,0,0,1-3.772,1.312h-.82V261h19.188v-1.8h-.821a4.8,4.8,0,0,1-3.772-1.312c-.761-.871-1.147-2.471-1.147-4.757V232.464a18.181,18.181,0,0,1,5.288-4.8,11.171,11.171,0,0,1,5.535-1.68A7.867,7.867,0,0,1,386.725,228c1.442,1.333,2.173,3.416,2.173,6.191v18.941c0,2.286-.386,3.886-1.148,4.757a4.8,4.8,0,0,1-3.772,1.312Zm-85.69,0V261h19.188v-1.8h-.82a4.8,4.8,0,0,1-3.772-1.312c-.762-.87-1.148-2.471-1.148-4.757v-29.52H317.8V221.64h-6.889a17.48,17.48,0,0,0-.615-4.51,21.566,21.566,0,0,0-1.148-2.993c-.406-.839-.778-1.639-1.107-2.378a6.572,6.572,0,0,1-.491-2.665,4.215,4.215,0,0,1,1.066-3.157,3.659,3.659,0,0,1,2.624-1.025,2.4,2.4,0,0,1,1.763.615,2.073,2.073,0,0,1,.615,1.517,5.272,5.272,0,0,1-.205,1.558,5.272,5.272,0,0,0-.205,1.558,3.631,3.631,0,0,0,1.148,2.624,3.911,3.911,0,0,0,2.87,1.148,4.179,4.179,0,0,0,2.992-1.229,4.375,4.375,0,0,0,1.272-3.28,6.248,6.248,0,0,0-2.337-5.043,8.821,8.821,0,0,0-5.781-1.927,12.563,12.563,0,0,0-3.731.573,7.459,7.459,0,0,0-3.28,2.132,11.3,11.3,0,0,0-2.3,4.264,23.268,23.268,0,0,0-.86,6.888v5.331h-6.233v1.967h6.233v29.52c0,2.286-.386,3.886-1.148,4.757a4.8,4.8,0,0,1-3.772,1.312Zm-77.9,0V261h19.188v-1.8h-.82a4.8,4.8,0,0,1-3.772-1.312c-.761-.871-1.147-2.471-1.147-4.757V202.452L219.568,203.6v1.8h.821a5.56,5.56,0,0,1,3.485,1.107c.952.734,1.435,2.321,1.435,4.715v41.9c0,2.285-.386,3.886-1.147,4.757a4.8,4.8,0,0,1-3.772,1.312Zm-21.975,0V261H216.78v-1.8h-.82a4.8,4.8,0,0,1-3.773-1.312c-.761-.871-1.148-2.471-1.148-4.757V202.452L197.592,203.6v1.8h.82a5.56,5.56,0,0,1,3.485,1.107c.952.734,1.435,2.321,1.435,4.715v41.9c0,2.285-.386,3.886-1.147,4.757a4.8,4.8,0,0,1-3.772,1.312Zm-21.976,0V261H194.8v-1.8h-.82a4.8,4.8,0,0,1-3.772-1.312c-.762-.87-1.148-2.471-1.148-4.757V220.492l-13.448,1.148v1.8h.82a5.56,5.56,0,0,1,3.485,1.107c.953.735,1.435,2.321,1.435,4.715v23.862c0,2.285-.386,3.885-1.148,4.757a4.8,4.8,0,0,1-3.772,1.312Zm-31.734,0V261H163.07v-1.8h-.82a4.8,4.8,0,0,1-3.772-1.312c-.762-.87-1.148-2.471-1.148-4.757v-20.5a12.7,12.7,0,0,1,.41-3.568,7.882,7.882,0,0,1,.942-2.132,2.894,2.894,0,0,1,1.19-1.066,2.937,2.937,0,0,1,1.148-.287,2.319,2.319,0,0,1,2.214,1.025c.389.7.858,1.565,1.394,2.583a7.5,7.5,0,0,0,1.517,1.558,3.635,3.635,0,0,0,2.255.656,5.193,5.193,0,0,0,3.485-1.312,4.636,4.636,0,0,0,1.517-3.69,5.429,5.429,0,0,0-1.8-4.387,7.3,7.3,0,0,0-4.838-1.517,10.521,10.521,0,0,0-5.453,1.6,10.709,10.709,0,0,0-3.977,3.977v-5.576l-13.448,1.148v1.8h.82a4.8,4.8,0,0,1,3.772,1.312c.762.871,1.148,2.471,1.148,4.756v23.616c0,2.285-.386,3.885-1.148,4.757A4.8,4.8,0,0,1,144.7,259.2Zm-21.976,0V261h19.188v-1.8h-.82a4.8,4.8,0,0,1-3.772-1.312c-.762-.871-1.148-2.472-1.148-4.757V231.644c0-3.591-.966-6.377-2.87-8.282s-4.635-2.87-8.118-2.87a15.236,15.236,0,0,0-8.691,2.665,25.6,25.6,0,0,0-6.56,6.355V202.452L95.666,203.6v1.8h.82a4.8,4.8,0,0,1,3.772,1.311c.761.871,1.147,2.471,1.147,4.756v41.656c0,2.285-.386,3.886-1.147,4.757a4.8,4.8,0,0,1-3.772,1.312h-.82V261h19.188v-1.8h-.821a4.8,4.8,0,0,1-3.772-1.312c-.761-.871-1.147-2.471-1.147-4.757V232.464a18.181,18.181,0,0,1,5.288-4.8,11.171,11.171,0,0,1,5.535-1.68A7.867,7.867,0,0,1,125.473,228c1.442,1.333,2.173,3.416,2.173,6.191v18.941c0,2.286-.386,3.886-1.148,4.757a4.8,4.8,0,0,1-3.772,1.312Zm63.3-54.612a5.319,5.319,0,1,0,3.772,1.558A5.159,5.159,0,0,0,185.21,204.584ZM491.07,99.492a19.03,19.03,0,0,0-6.108.984,15.138,15.138,0,0,0-5.126,2.911,14.114,14.114,0,0,0-3.526,4.756A15.4,15.4,0,0,0,475,114.662a11.737,11.737,0,0,0,1.353,5.576,15.137,15.137,0,0,0,3.567,4.428,13.764,13.764,0,0,0-3.936,3.567,6.883,6.883,0,0,0-1.312,3.977,6.137,6.137,0,0,0,.943,3.362,9.8,9.8,0,0,0,3.239,2.869,14,14,0,0,0-4.838,4.511A8.84,8.84,0,0,0,472.7,147.3a9.037,9.037,0,0,0,1.436,5,12.341,12.341,0,0,0,3.854,3.731,19.818,19.818,0,0,0,5.617,2.336,27.418,27.418,0,0,0,6.806.821,25.552,25.552,0,0,0,6.725-.943,22.185,22.185,0,0,0,6.273-2.788A15.589,15.589,0,0,0,508,150.906a11.063,11.063,0,0,0,1.763-6.15,10.42,10.42,0,0,0-1.107-4.869,9.931,9.931,0,0,0-3.321-3.618c-2.938-1.986-6.966-3.021-11.973-3.075-4.787-.054-8.222-.412-10.209-1.066s-2.993-1.674-2.993-3.034a3.18,3.18,0,0,1,.491-1.64,5.041,5.041,0,0,1,1.23-1.394,15.838,15.838,0,0,0,8.2,2.3,19.069,19.069,0,0,0,6.191-1.025,17.439,17.439,0,0,0,5.33-2.911,14.239,14.239,0,0,0,3.731-4.592,13.3,13.3,0,0,0,1.394-6.15,13.058,13.058,0,0,0-.9-4.879,14.322,14.322,0,0,0-2.46-4.059h7.052v-2.952H499.844A19.368,19.368,0,0,0,491.07,99.492ZM351.178,134.67v0a8.573,8.573,0,0,0,2.459,4.877,6.462,6.462,0,0,0,4.428,1.6,6.656,6.656,0,0,0,5.166-2.3,11.132,11.132,0,0,0,2.378-6.724l-1.066-.328a4.5,4.5,0,0,1-1.271,2.583,3,3,0,0,1-1.927.7,2.264,2.264,0,0,1-1.845-.861,3.911,3.911,0,0,1-.7-2.5V111.3a13.636,13.636,0,0,0-1.025-5.617,9.342,9.342,0,0,0-2.87-3.649,11.367,11.367,0,0,0-4.346-1.968,24.485,24.485,0,0,0-5.452-.573,17.211,17.211,0,0,0-8.692,2.214,13.589,13.589,0,0,0-5.576,5.657,5.867,5.867,0,0,0-.491,1.476,7.615,7.615,0,0,0-.165,1.476,3.928,3.928,0,0,0,1.067,2.83,3.608,3.608,0,0,0,2.705,1.107,3.652,3.652,0,0,0,2.911-1.189,4.325,4.325,0,0,0,1.025-2.911,4.221,4.221,0,0,0-.329-1.722,3.812,3.812,0,0,1-.328-1.558,4.278,4.278,0,0,1,1.886-3.486,7.944,7.944,0,0,1,4.92-1.435,6.878,6.878,0,0,1,5.125,1.968c1.279,1.306,1.927,3.292,1.927,5.9V115.4l-10.579,2.788a20.648,20.648,0,0,0-9.184,4.8,10.512,10.512,0,0,0-3.2,7.749,10.693,10.693,0,0,0,.86,4.387,10.167,10.167,0,0,0,2.3,3.281,9.654,9.654,0,0,0,3.362,2.05,11.9,11.9,0,0,0,4.059.7,20.354,20.354,0,0,0,2.583-.164,10.46,10.46,0,0,0,2.583-.7,14.7,14.7,0,0,0,2.747-1.517,22.375,22.375,0,0,0,3.075-2.624l1.475-1.475Zm-109.06,0v0a8.572,8.572,0,0,0,2.459,4.877,6.465,6.465,0,0,0,4.428,1.6,6.656,6.656,0,0,0,5.166-2.3,11.132,11.132,0,0,0,2.379-6.724l-1.066-.328a4.5,4.5,0,0,1-1.271,2.583,3,3,0,0,1-1.927.7,2.264,2.264,0,0,1-1.845-.861,3.91,3.91,0,0,1-.7-2.5V111.3a13.623,13.623,0,0,0-1.025-5.617,9.345,9.345,0,0,0-2.869-3.649,11.379,11.379,0,0,0-4.346-1.968,24.5,24.5,0,0,0-5.453-.573,17.212,17.212,0,0,0-8.692,2.214,13.589,13.589,0,0,0-5.576,5.657,5.863,5.863,0,0,0-.491,1.476,7.607,7.607,0,0,0-.164,1.476,3.928,3.928,0,0,0,1.066,2.83,3.612,3.612,0,0,0,2.706,1.107,3.651,3.651,0,0,0,2.911-1.189,4.325,4.325,0,0,0,1.025-2.911,4.221,4.221,0,0,0-.328-1.722,3.813,3.813,0,0,1-.328-1.558,4.279,4.279,0,0,1,1.886-3.486,7.942,7.942,0,0,1,4.919-1.435,6.879,6.879,0,0,1,5.126,1.968c1.279,1.305,1.927,3.292,1.927,5.9V115.4l-10.578,2.788a20.648,20.648,0,0,0-9.184,4.8,10.512,10.512,0,0,0-3.2,7.749,10.706,10.706,0,0,0,.86,4.387,10.167,10.167,0,0,0,2.3,3.281,9.659,9.659,0,0,0,3.362,2.05,11.906,11.906,0,0,0,4.059.7,20.332,20.332,0,0,0,2.583-.164,10.457,10.457,0,0,0,2.583-.7,14.7,14.7,0,0,0,2.747-1.517,22.368,22.368,0,0,0,3.075-2.624l1.475-1.475ZM184.062,99.492a16.3,16.3,0,0,0-7.051,1.6,18.733,18.733,0,0,0-5.9,4.428,21.741,21.741,0,0,0-4.059,6.765,24.092,24.092,0,0,0-1.517,8.692,23.765,23.765,0,0,0,1.354,8.2,18.862,18.862,0,0,0,3.812,6.355,17.167,17.167,0,0,0,5.9,4.141,19.258,19.258,0,0,0,7.627,1.476,15.82,15.82,0,0,0,5.821-1.066,15.323,15.323,0,0,0,4.8-2.993,15.786,15.786,0,0,0,3.444-4.674,20.527,20.527,0,0,0,1.845-6.109l-1.23-.328a16.172,16.172,0,0,1-4.3,7.38,10.08,10.08,0,0,1-7.093,2.705,10.633,10.633,0,0,1-5.33-1.353,12.2,12.2,0,0,1-4.019-3.731,18.64,18.64,0,0,1-2.542-5.657,27.3,27.3,0,0,1-.9-7.216v-1.312h25.994a18.225,18.225,0,0,0-1.353-7.134,17.042,17.042,0,0,0-3.608-5.452,15.85,15.85,0,0,0-5.289-3.486A16.938,16.938,0,0,0,184.062,99.492Zm268.3,38.7V140h19.188v-1.8h-.82a4.8,4.8,0,0,1-3.772-1.312c-.762-.87-1.148-2.47-1.148-4.756V110.644a11.645,11.645,0,0,0-2.788-8.036c-1.85-2.067-4.664-3.116-8.364-3.116a13.585,13.585,0,0,0-8.282,2.747,24.276,24.276,0,0,0-6.233,6.929V99.492L426.7,100.64v1.8h.82a4.8,4.8,0,0,1,3.772,1.311c.762.87,1.148,2.471,1.148,4.756v23.616c0,2.285-.386,3.885-1.148,4.756a4.8,4.8,0,0,1-3.772,1.312h-.82V140h19.188v-1.8h-.82a4.8,4.8,0,0,1-3.772-1.312c-.762-.871-1.148-2.471-1.148-4.756V112.12a15.483,15.483,0,0,1,4.51-5.126,9.757,9.757,0,0,1,5.74-2.009,7.94,7.94,0,0,1,5.7,1.927c1.334,1.279,2.01,3.389,2.01,6.273v18.942c0,2.284-.386,3.884-1.148,4.756a4.8,4.8,0,0,1-3.772,1.312Zm-47.642,0V140h19.188v-1.8h-.82a4.8,4.8,0,0,1-3.772-1.312c-.761-.871-1.147-2.471-1.147-4.756V99.492l-13.449,1.148v1.8h.82a5.561,5.561,0,0,1,3.486,1.107c.952.734,1.435,2.321,1.435,4.715v23.862c0,2.285-.386,3.885-1.148,4.756a4.8,4.8,0,0,1-3.773,1.312Zm-22.631-35.588h8.2L368.48,138.032V140H400.46V128.52h-1.312a16.874,16.874,0,0,1-1.763,4.838,8.655,8.655,0,0,1-2.665,2.911,9.581,9.581,0,0,1-3.526,1.394,23.288,23.288,0,0,1-4.264.369h-8.036L399.8,102.608V100.64H369.3v11.644h1.148c.49-3.592,1.663-6.13,3.485-7.544S378.5,102.608,382.092,102.608ZM307.39,138.2V140h18.7v-1.8h-.82c-1.742,0-2.97-.441-3.649-1.312s-1.025-2.471-1.025-4.756V110.644c0-3.483-.91-6.242-2.705-8.2s-4.444-2.952-7.872-2.952a13.373,13.373,0,0,0-7.79,2.336,24.34,24.34,0,0,0-6.314,6.929,10.268,10.268,0,0,0-2.993-6.888c-1.713-1.578-4.237-2.378-7.5-2.378a13.109,13.109,0,0,0-7.5,2.254,26.45,26.45,0,0,0-6.519,6.847v-9.1l-13.449,1.148v1.8h.821a4.8,4.8,0,0,1,3.772,1.311c.761.871,1.148,2.471,1.148,4.756v23.616c0,2.285-.386,3.885-1.148,4.756a4.8,4.8,0,0,1-3.772,1.312h-.821V140h19.188v-1.8h-.82a4.8,4.8,0,0,1-3.772-1.312c-.761-.871-1.147-2.471-1.147-4.756V111.546a13.48,13.48,0,0,1,2.132-2.665,16.4,16.4,0,0,1,2.583-2.05,13.923,13.923,0,0,1,2.705-1.353,7.381,7.381,0,0,1,2.5-.492,6.7,6.7,0,0,1,5.043,2.009c1.279,1.333,1.928,3.416,1.928,6.191v18.942c0,2.284-.345,3.884-1.025,4.756s-1.909,1.312-3.65,1.312h-.82V140h18.7v-1.8h-.82c-1.741,0-2.969-.441-3.649-1.312s-1.025-2.471-1.025-4.756V111.546a13.51,13.51,0,0,1,2.132-2.665,16.429,16.429,0,0,1,2.583-2.05,13.905,13.905,0,0,1,2.706-1.353,7.379,7.379,0,0,1,2.5-.492,6.7,6.7,0,0,1,5.044,2.009c1.279,1.333,1.927,3.416,1.927,6.191v18.942c0,2.285-.345,3.885-1.025,4.756s-1.907,1.312-3.649,1.312Zm-161.539,0V140h19.188v-1.8h-.821a4.8,4.8,0,0,1-3.772-1.312c-.761-.871-1.147-2.471-1.147-4.756V110.644c0-3.592-.966-6.378-2.87-8.282s-4.636-2.87-8.118-2.87a15.24,15.24,0,0,0-8.692,2.665,25.627,25.627,0,0,0-6.56,6.355V81.452L119.61,82.6v1.8h.82a4.8,4.8,0,0,1,3.772,1.312c.762.87,1.148,2.47,1.148,4.756v41.656c0,2.285-.386,3.885-1.148,4.756a4.8,4.8,0,0,1-3.772,1.312h-.82V140H138.8v-1.8h-.82a4.8,4.8,0,0,1-3.772-1.312c-.762-.87-1.148-2.47-1.148-4.756V111.464a18.181,18.181,0,0,1,5.289-4.8,11.167,11.167,0,0,1,5.535-1.681,7.87,7.87,0,0,1,5.535,2.009c1.442,1.332,2.173,3.415,2.173,6.191v18.942c0,2.285-.386,3.885-1.147,4.756a4.8,4.8,0,0,1-3.772,1.312Zm-63.386,0V140h23.288v-1.8h-.82a6.1,6.1,0,0,1-4.8-1.8,7.987,7.987,0,0,1-1.6-5.412V88.5c0-2.068.993-3.116,2.952-3.116h2.05c3.592,0,6.378,1.007,8.282,2.993s3.091,4.98,3.526,8.9H116.9V82.6H71.312V97.278H72.87c.435-3.918,1.622-6.911,3.525-8.9s4.691-2.993,8.283-2.993h2.049a2.924,2.924,0,0,1,2.214.779A3.3,3.3,0,0,1,89.68,88.5V130.98a7.988,7.988,0,0,1-1.6,5.412,6.1,6.1,0,0,1-4.8,1.8ZM414.318,83.584a5.321,5.321,0,1,0,3.772,1.558A5.159,5.159,0,0,0,414.318,83.584Zm-52.726,418.1a8.658,8.658,0,0,1-4.961-1.476,12.192,12.192,0,0,1-3.69-4.141,22.088,22.088,0,0,1-2.3-6.314,38.5,38.5,0,0,1-.779-7.995,28.281,28.281,0,0,1,.82-7.134,17.174,17.174,0,0,1,2.3-5.288,10.352,10.352,0,0,1,3.444-3.281,8.593,8.593,0,0,1,4.264-1.107,9.256,9.256,0,0,1,4.694,1.22,11.6,11.6,0,0,1,3.752,3.659,17.976,17.976,0,0,1,2.46,6.242,43.218,43.218,0,0,1,.82,8.969c0,5.387-1.021,9.552-3.035,12.381a10.5,10.5,0,0,1-3.464,3.2A8.9,8.9,0,0,1,361.592,501.688ZM91.648,499.474a9.344,9.344,0,0,1-4.592-1.138,10.763,10.763,0,0,1-3.608-3.414c-2.067-3.02-3.116-7.31-3.116-12.75a24.522,24.522,0,0,1,.984-7.258,18.657,18.657,0,0,1,2.542-5.33,11.578,11.578,0,0,1,3.525-3.321,7.927,7.927,0,0,1,4.019-1.147,7.559,7.559,0,0,1,3.485.778,7.819,7.819,0,0,1,2.542,2.05,9.53,9.53,0,0,1,1.6,2.993,11.139,11.139,0,0,1,.574,3.526V495.7a7.949,7.949,0,0,1-3.2,2.706A10.545,10.545,0,0,1,91.648,499.474Zm142.27-22.14h-18.2a17.6,17.6,0,0,1,1.025-5.166,15.055,15.055,0,0,1,2.091-3.9,9.122,9.122,0,0,1,2.788-2.46,6.564,6.564,0,0,1,3.2-.861,7.6,7.6,0,0,1,3.894.985,8.807,8.807,0,0,1,2.83,2.665,13.047,13.047,0,0,1,1.763,3.936,18.262,18.262,0,0,1,.615,4.8Zm-18.942-98.86a9.343,9.343,0,0,1-4.592-1.138,10.767,10.767,0,0,1-3.608-3.413c-2.067-3.02-3.116-7.31-3.116-12.751a24.512,24.512,0,0,1,.984-7.257,18.659,18.659,0,0,1,2.543-5.33,11.578,11.578,0,0,1,3.525-3.321,7.919,7.919,0,0,1,4.018-1.148,7.558,7.558,0,0,1,3.485.779,7.838,7.838,0,0,1,2.542,2.049,9.552,9.552,0,0,1,1.6,2.993,11.141,11.141,0,0,1,.574,3.526V374.7a7.945,7.945,0,0,1-3.2,2.705A10.535,10.535,0,0,1,214.976,378.474ZM276.8,259.688a8.652,8.652,0,0,1-4.961-1.476,12.191,12.191,0,0,1-3.69-4.141,22.082,22.082,0,0,1-2.3-6.314,38.509,38.509,0,0,1-.779-8,28.273,28.273,0,0,1,.82-7.133,17.189,17.189,0,0,1,2.3-5.289,10.353,10.353,0,0,1,3.444-3.28,8.594,8.594,0,0,1,4.264-1.107,9.256,9.256,0,0,1,4.694,1.22,11.594,11.594,0,0,1,3.751,3.66,17.973,17.973,0,0,1,2.46,6.242,43.212,43.212,0,0,1,.82,8.969c0,5.386-1.021,9.552-3.034,12.381a10.5,10.5,0,0,1-3.465,3.2A8.9,8.9,0,0,1,276.8,259.688Zm153.5-24.354H412.1a17.6,17.6,0,0,1,1.025-5.166,15.032,15.032,0,0,1,2.092-3.9,9.1,9.1,0,0,1,2.787-2.46,6.564,6.564,0,0,1,3.2-.861,7.6,7.6,0,0,1,3.894.985,8.807,8.807,0,0,1,2.83,2.665,13.048,13.048,0,0,1,1.763,3.936,18.27,18.27,0,0,1,.615,4.8Zm60.926-78.77a14.814,14.814,0,0,1-5.535-.943,13.3,13.3,0,0,1-3.937-2.378,9.447,9.447,0,0,1-2.378-3.2,8.618,8.618,0,0,1-.779-3.486,14.052,14.052,0,0,1,.452-3.485,12.449,12.449,0,0,1,1.845-3.812,27.731,27.731,0,0,0,4.51,1.271,30.86,30.86,0,0,0,6.068.533,37.905,37.905,0,0,1,6.068.41,11.706,11.706,0,0,1,3.936,1.271,5.437,5.437,0,0,1,2.132,2.091,6.037,6.037,0,0,1,.656,2.87,6.2,6.2,0,0,1-.9,3.116,9.9,9.9,0,0,1-2.542,2.83,13.825,13.825,0,0,1-4.1,2.091A17.4,17.4,0,0,1,491.234,156.564Zm-148.748-20.09a5.967,5.967,0,0,1-5.043-2.092,7.711,7.711,0,0,1-1.6-4.8,8.2,8.2,0,0,1,2.337-5.74,18.394,18.394,0,0,1,7.011-4.264l5.9-2.214V132.21l-1.723,1.64a9.4,9.4,0,0,1-6.888,2.624Zm-109.06,0a5.968,5.968,0,0,1-5.043-2.092,7.712,7.712,0,0,1-1.6-4.8,8.2,8.2,0,0,1,2.337-5.74,18.394,18.394,0,0,1,7.011-4.264l5.9-2.214V132.21l-1.722,1.64a9.4,9.4,0,0,1-6.889,2.624Zm257.48-10.906a6.7,6.7,0,0,1-4.141-1.271,9.237,9.237,0,0,1-2.665-3.2,16.182,16.182,0,0,1-1.435-4.181,21.706,21.706,0,0,1-.451-4.223c0-3.265.814-5.845,2.419-7.667a7.651,7.651,0,0,1,5.945-2.748,6.948,6.948,0,0,1,3.894,1.107,9.357,9.357,0,0,1,2.788,2.87,14,14,0,0,1,1.681,4.059,19.3,19.3,0,0,1,.574,4.675,12.322,12.322,0,0,1-2.214,7.749A7.671,7.671,0,0,1,490.906,125.568ZM193,114.334H174.8a17.567,17.567,0,0,1,1.025-5.166,15.008,15.008,0,0,1,2.091-3.9,9.1,9.1,0,0,1,2.788-2.46,6.562,6.562,0,0,1,3.2-.861,7.6,7.6,0,0,1,3.9.984,8.8,8.8,0,0,1,2.829,2.665,13.017,13.017,0,0,1,1.763,3.937,18.227,18.227,0,0,1,.615,4.8Z"/>
</svg>
