<svg xmlns="http://www.w3.org/2000/svg" viewBox="0 0 600 600.001">
  <defs>
    <style>
      .cls-1 {
        fill: #fff;
      }
    </style>
  </defs>
  <path id="Subtraction_1" data-name="Subtraction 1" class="cls-1" d="M600,600H0V0H600V600ZM551.924,235V365.954H580.57V235Zm-98.213,0V365.954h28.646V235Zm-153.46,61.109h0l34.784,69.841h28.646L300.251,235,236.822,365.954h28.646l34.783-69.841ZM187.717,235V365.954h28.646V235ZM89.5,235l49.109,130.951L152.93,327.76,118.146,235ZM62.045,337.212v28.733a45.525,45.525,0,0,0,16.881-3.057,39.513,39.513,0,0,0,0-73.635,45.365,45.365,0,0,0-16.881-3.057h-.07a11.5,11.5,0,0,1-4.262-.815,11.112,11.112,0,0,1-6.075-5.861,11.352,11.352,0,0,1,0-8.885,11.107,11.107,0,0,1,6.068-5.864,11.506,11.506,0,0,1,4.3-.828h.042V235.2a45.525,45.525,0,0,0-16.881,3.056,39.514,39.514,0,0,0,0,73.636,45.366,45.366,0,0,0,16.881,3.057h.049a11.487,11.487,0,0,1,4.29.828,11.107,11.107,0,0,1,6.074,5.861,11.348,11.348,0,0,1,0,8.884,11.107,11.107,0,0,1-6.074,5.861,11.506,11.506,0,0,1-4.3.828Zm329.427-.2v28.746a45.508,45.508,0,0,0,16.881-3.057,39.513,39.513,0,0,0,0-73.635,45.367,45.367,0,0,0-16.881-3.057h-.035a11.507,11.507,0,0,1-4.3-.831,11.116,11.116,0,0,1-6.074-5.861,11.353,11.353,0,0,1,0-8.885,11.108,11.108,0,0,1,6.074-5.861,11.521,11.521,0,0,1,4.3-.827h.043V235a45.548,45.548,0,0,0-16.881,3.057,39.514,39.514,0,0,0,0,73.636,45.39,45.39,0,0,0,16.881,3.056h.043a11.5,11.5,0,0,1,4.3.828,11.107,11.107,0,0,1,6.074,5.861,11.344,11.344,0,0,1,0,8.885,11.107,11.107,0,0,1-6.074,5.861,11.523,11.523,0,0,1-4.3.827Z"/>
</svg>
